<svg width="32" height="29" viewBox="0 0 32 29" fill="none" xmlns="http://www.w3.org/2000/svg">
<path d="M16.28 18.12H15.56C15.3467 18.5733 15.08 19.0133 14.76 19.44C14.4667 19.84 14.0667 20.2 13.56 20.52C13.08 20.84 12.4933 21.0933 11.8 21.28C11.1333 21.4667 10.32 21.56 9.36 21.56C8.13333 21.56 6.98667 21.3467 5.92 20.92C4.88 20.4667 3.96 19.8133 3.16 18.96C2.38667 18.08 1.77333 17.0133 1.32 15.76C0.893334 14.5067 0.68 13.0667 0.68 11.44V10.72C0.68 9.12001 0.906667 7.69334 1.36 6.44001C1.84 5.18667 2.48 4.13334 3.28 3.28001C4.10667 2.40001 5.05333 1.73334 6.12 1.28001C7.21333 0.826673 8.36 0.600006 9.56 0.600006C11.16 0.600006 12.4267 0.906672 13.36 1.52001C14.2933 2.10667 15.0267 2.94667 15.56 4.04001H16.28V1.16001H21.32V25.88C21.32 26.7867 21.0267 27.5333 20.44 28.12C19.88 28.7067 19.1467 29 18.24 29H4.88V24.2H15.2C15.92 24.2 16.28 23.8 16.28 23V18.12ZM11 16.76C12.5733 16.76 13.84 16.2667 14.8 15.28C15.7867 14.2667 16.28 12.9467 16.28 11.32V10.84C16.28 9.21334 15.7867 7.90667 14.8 6.92001C13.84 5.90667 12.5733 5.40001 11 5.40001C9.42667 5.40001 8.14667 5.89334 7.16 6.88001C6.2 7.84001 5.72 9.16001 5.72 10.84V11.32C5.72 13 6.2 14.3333 7.16 15.32C8.14667 16.28 9.42667 16.76 11 16.76Z" fill="white"/>
<path d="M31.1322 17.8C31.1322 18.3333 31.0255 18.84 30.8122 19.32C30.6255 19.7733 30.3589 20.1733 30.0122 20.52C29.6655 20.84 29.2522 21.0933 28.7722 21.28C28.3189 21.4933 27.8389 21.6 27.3322 21.6C26.7989 21.6 26.3055 21.4933 25.8522 21.28C25.3989 21.0933 24.9989 20.84 24.6522 20.52C24.3055 20.1733 24.0255 19.7733 23.8122 19.32C23.6255 18.84 23.5322 18.3333 23.5322 17.8C23.5322 17.2667 23.6255 16.7733 23.8122 16.32C24.0255 15.84 24.3055 15.44 24.6522 15.12C24.9989 14.7733 25.3989 14.5067 25.8522 14.32C26.3055 14.1067 26.7989 14 27.3322 14C27.8389 14 28.3189 14.1067 28.7722 14.32C29.2522 14.5067 29.6655 14.7733 30.0122 15.12C30.3589 15.44 30.6255 15.84 30.8122 16.32C31.0255 16.7733 31.1322 17.2667 31.1322 17.8Z" fill="white"/>
</svg>
