<svg width="83" height="36" viewBox="0 0 83 36" fill="none" xmlns="http://www.w3.org/2000/svg">
<path d="M16.28 25.12H15.56C15.3467 25.5733 15.08 26.0133 14.76 26.44C14.4667 26.84 14.0667 27.2 13.56 27.52C13.08 27.84 12.4933 28.0933 11.8 28.28C11.1333 28.4667 10.32 28.56 9.35999 28.56C8.13333 28.56 6.98666 28.3467 5.91999 27.92C4.87999 27.4667 3.95999 26.8133 3.15999 25.96C2.38666 25.08 1.77333 24.0133 1.31999 22.76C0.893326 21.5067 0.679993 20.0667 0.679993 18.44V17.72C0.679993 16.12 0.906659 14.6933 1.35999 13.44C1.83999 12.1867 2.47999 11.1333 3.27999 10.28C4.10666 9.4 5.05333 8.73333 6.11999 8.28C7.21333 7.82667 8.35999 7.6 9.55999 7.6C11.16 7.6 12.4267 7.90667 13.36 8.52C14.2933 9.10667 15.0267 9.94667 15.56 11.04H16.28V8.16H21.32V32.88C21.32 33.7867 21.0267 34.5333 20.44 35.12C19.88 35.7067 19.1467 36 18.24 36H4.87999V31.2H15.2C15.92 31.2 16.28 30.8 16.28 30V25.12ZM11 23.76C12.5733 23.76 13.84 23.2667 14.8 22.28C15.7867 21.2667 16.28 19.9467 16.28 18.32V17.84C16.28 16.2133 15.7867 14.9067 14.8 13.92C13.84 12.9067 12.5733 12.4 11 12.4C9.42666 12.4 8.14666 12.8933 7.15999 13.88C6.19999 14.84 5.71999 16.16 5.71999 17.84V18.32C5.71999 20 6.19999 21.3333 7.15999 22.32C8.14666 23.28 9.42666 23.76 11 23.76Z" fill="#333333"/>
<path d="M37.4522 25.12C36.9188 26.3733 36.1722 27.2667 35.2122 27.8C34.2522 28.3067 33.1322 28.56 31.8522 28.56C30.6522 28.56 29.5188 28.3333 28.4522 27.88C27.4122 27.4267 26.4922 26.76 25.6922 25.88C24.8922 25 24.2522 23.9333 23.7722 22.68C23.3188 21.4267 23.0922 20 23.0922 18.4V17.76C23.0922 16.1867 23.3188 14.7733 23.7722 13.52C24.2255 12.2667 24.8388 11.2 25.6122 10.32C26.3855 9.44 27.2788 8.77333 28.2922 8.32C29.3322 7.84 30.4388 7.6 31.6122 7.6C33.0255 7.6 34.1588 7.84 35.0122 8.32C35.8922 8.8 36.5855 9.54667 37.0922 10.56H37.8122V8.16H42.8522V22C42.8522 22.8 43.2122 23.2 43.9322 23.2H44.6922V28H41.2522C40.3455 28 39.5988 27.7333 39.0122 27.2C38.4522 26.6667 38.1722 25.9733 38.1722 25.12H37.4522ZM32.9722 23.76C34.4388 23.76 35.6122 23.28 36.4922 22.32C37.3722 21.3333 37.8122 20 37.8122 18.32V17.84C37.8122 16.16 37.3722 14.84 36.4922 13.88C35.6122 12.8933 34.4388 12.4 32.9722 12.4C31.5055 12.4 30.3322 12.8933 29.4522 13.88C28.5722 14.84 28.1322 16.16 28.1322 17.84V18.32C28.1322 20 28.5722 21.3333 29.4522 22.32C30.3322 23.28 31.5055 23.76 32.9722 23.76Z" fill="#333333"/>
<path d="M61.3444 25.12H60.6244C60.411 25.5733 60.1444 26.0133 59.8244 26.44C59.531 26.84 59.131 27.2 58.6244 27.52C58.1444 27.84 57.5577 28.0933 56.8644 28.28C56.1977 28.4667 55.3844 28.56 54.4244 28.56C53.1977 28.56 52.051 28.3467 50.9844 27.92C49.9444 27.4667 49.0244 26.8133 48.2244 25.96C47.451 25.08 46.8377 24.0133 46.3844 22.76C45.9577 21.5067 45.7444 20.0667 45.7444 18.44V17.72C45.7444 16.12 45.971 14.6933 46.4244 13.44C46.9044 12.1867 47.5444 11.1333 48.3444 10.28C49.171 9.4 50.1177 8.73333 51.1844 8.28C52.2777 7.82667 53.4244 7.6 54.6244 7.6C56.2244 7.6 57.491 7.90667 58.4244 8.52C59.3577 9.10667 60.091 9.94667 60.6244 11.04H61.3444V0H66.3844V28H61.3444V25.12ZM56.0644 23.76C57.6377 23.76 58.9044 23.2667 59.8644 22.28C60.851 21.2667 61.3444 19.9467 61.3444 18.32V17.84C61.3444 16.2133 60.851 14.9067 59.8644 13.92C58.9044 12.9067 57.6377 12.4 56.0644 12.4C54.491 12.4 53.211 12.8933 52.2244 13.88C51.2644 14.84 50.7844 16.16 50.7844 17.84V18.32C50.7844 20 51.2644 21.3333 52.2244 22.32C53.211 23.28 54.491 23.76 56.0644 23.76Z" fill="#333333"/>
<path d="M82.5166 24.76C82.5166 25.2933 82.4099 25.8 82.1966 26.28C82.0099 26.7333 81.7432 27.1333 81.3966 27.48C81.0499 27.8 80.6366 28.0533 80.1566 28.24C79.7032 28.4533 79.2232 28.56 78.7166 28.56C78.1832 28.56 77.6899 28.4533 77.2366 28.24C76.7832 28.0533 76.3832 27.8 76.0366 27.48C75.6899 27.1333 75.4099 26.7333 75.1966 26.28C75.0099 25.8 74.9166 25.2933 74.9166 24.76C74.9166 24.2267 75.0099 23.7333 75.1966 23.28C75.4099 22.8 75.6899 22.4 76.0366 22.08C76.3832 21.7333 76.7832 21.4667 77.2366 21.28C77.6899 21.0667 78.1832 20.96 78.7166 20.96C79.2232 20.96 79.7032 21.0667 80.1566 21.28C80.6366 21.4667 81.0499 21.7333 81.3966 22.08C81.7432 22.4 82.0099 22.8 82.1966 23.28C82.4099 23.7333 82.5166 24.2267 82.5166 24.76Z" fill="#503CE9"/>
</svg>
